<?xml version="1.0" encoding="UTF-8"?>
<svg xmlns="http://www.w3.org/2000/svg" style="display: none;">
  <symbol id="icon-github" viewBox="0 0 24 24" fill="none" stroke="currentColor" stroke-width="2" stroke-linecap="round" stroke-linejoin="round">
    <path d="M9 19c-5 1.5-5-2.5-7-3m14 6v-3.87a3.37 3.37 0 0 0-.94-2.61c3.14-.35 6.44-1.54 6.44-7A5.44 5.44 0 0 0 20 4.77 5.07 5.07 0 0 0 19.91 1S18.73.65 16 2.48a13.38 13.38 0 0 0-7 0C6.27.65 5.09 1 5.09 1A5.07 5.07 0 0 0 5 4.77a5.44 5.44 0 0 0-1.5 3.78c0 5.42 3.3 6.61 6.44 7A3.37 3.37 0 0 0 9 18.13V22"></path>
  </symbol>
  
  <symbol id="icon-tiktok" viewBox="0 0 24 24" fill="currentColor">
    <path d="M19.59 6.69a4.83 4.83 0 0 1-3.77-4.25V2h-3.45v13.67a2.89 2.89 0 0 1-5.2 1.74 2.89 2.89 0 0 1 2.31-4.64c.298-.002.595.042.88.13V9.4a6.33 6.33 0 0 0-1-.08A6.34 6.34 0 0 0 5 17.65a6.34 6.34 0 0 0 7.32 2.81 6.34 6.34 0 0 0 4.35-6.02V8.12c1.02.52 2.48.86 4.08.86V5.53c-.47 0-.91-.08-1.16-.24z"/>
  </symbol>

  <symbol id="icon-instagram" viewBox="0 0 24 24" fill="none" stroke="currentColor" stroke-width="2" stroke-linecap="round" stroke-linejoin="round">
    <rect x="2" y="2" width="20" height="20" rx="5" ry="5"></rect>
    <path d="M16 11.37A4 4 0 1 1 12.63 8 4 4 0 0 1 16 11.37z"></path>
    <line x1="17.5" y1="6.5" x2="17.51" y2="6.5"></line>
  </symbol>
</svg>